<?xml version="1.0" encoding="UTF-8" standalone="no"?>
<svg
   xmlns:dc="http://purl.org/dc/elements/1.1/"
   xmlns:cc="http://creativecommons.org/ns#"
   xmlns:rdf="http://www.w3.org/1999/02/22-rdf-syntax-ns#"
   xmlns:svg="http://www.w3.org/2000/svg"
   xmlns="http://www.w3.org/2000/svg"
   xmlns:sodipodi="http://sodipodi.sourceforge.net/DTD/sodipodi-0.dtd"
   xmlns:inkscape="http://www.inkscape.org/namespaces/inkscape"
   version="1.1"
   width="24"
   height="24"
   viewBox="0 0 24.00 24.00"
   enable-background="new 0 0 24.00 24.00"
   xml:space="preserve"
   id="svg2"
   inkscape:version="0.91 r13725"
   sodipodi:docname="lerkevled.svg"><metadata
     id="metadata22"><rdf:RDF><cc:Work
         rdf:about=""><dc:format>image/svg+xml</dc:format><dc:type
           rdf:resource="http://purl.org/dc/dcmitype/StillImage" /><dc:title></dc:title></cc:Work></rdf:RDF></metadata><defs
     id="defs20" /><sodipodi:namedview
     pagecolor="#ffffff"
     bordercolor="#666666"
     borderopacity="1"
     objecttolerance="10"
     gridtolerance="10"
     guidetolerance="10"
     inkscape:pageopacity="0"
     inkscape:pageshadow="2"
     inkscape:window-width="795"
     inkscape:window-height="864"
     id="namedview18"
     showgrid="true"
     inkscape:zoom="7.2407734"
     inkscape:cx="11.320005"
     inkscape:cy="29.119192"
     inkscape:window-x="801"
     inkscape:window-y="32"
     inkscape:window-maximized="0"
     inkscape:current-layer="svg2"><inkscape:grid
       type="xygrid"
       id="grid4173" /></sodipodi:namedview><path
     style="fill:#000000;fill-rule:evenodd;stroke:#000000;stroke-width:0.2;stroke-linecap:butt;stroke-linejoin:miter;stroke-miterlimit:4;stroke-dasharray:none;stroke-opacity:1"
     d="m 2.2784493,7.2932177 0,5.5526093 1.912156,0 0,-0.551584 3.971403,0 0,3.530137 -0.588357,0 0,1.912156 6.3248267,0 0,-1.912156 -3.824314,0 0,-4.026563 7.20736,0 0,5.920331 4.081719,0 0,-1.893768 -2.187948,0 0,-4.026563 2.518899,0 0,-2.0224722 -2.518899,0 0,-4.1184921 -2.629216,0 0,2.077632 0.71706,0 0,2.0592451 -3.934631,0 0,-2.7946899 -2.500512,0 0,2.7395321 -2.6843737,0 0,0.606742 -3.971403,0 0,-3.0515701 z"
     id="path4161"
     inkscape:connector-curvature="0"
     inkscape:export-xdpi="90"
     inkscape:export-ydpi="90" /></svg>